# xmcd CD database file
#
# Track frame offsets:
#	150
#	11025
#	30471
#	46583
#	61997
#	81849
#	101143
#	118299
#	135657
#	152163
#	170596
#	189523
#	207921
#
# Disc length: 2980 seconds
#
# Revision: 3
# Processed by: cddbd v1.5.1PL2 Copyright (c) Steve Scherf et al.
# Submitted via: CDex 1.51
#
DISCID=ad0ba20d
DTITLE=TLC - 3D
DYEAR=2002
DGENRE=R&B
TTITLE0=3D (Intro)
TTITLE1=Quickie
TTITLE2=Girl Talk
TTITLE3=Turntable
TTITLE4=In Your Arms Tonight
TTITLE5=Over Me
TTITLE6=Hands Up
TTITLE7=Damaged
TTITLE8=Dirty Dirty
TTITLE9=So So Dumb
TTITLE10=Good Love
TTITLE11=Hey Hey Hey Hey
TTITLE12=Give It To Me While It's Hot
EXTD=YEAR: 2002
EXTT0=
EXTT1=
EXTT2=
EXTT3=
EXTT4=
EXTT5=
EXTT6=
EXTT7=
EXTT8=
EXTT9=
EXTT10=
EXTT11=
EXTT12=
PLAYORDER=
